HIERARCHY
ROOT Hips
{
	OFFSET 0.000000 71.427986 0.000000
	CHANNELS 6 Xposition Yposition Zposition Xrotation Yrotation Zrotation
	JOINT Pelvis
	{
		OFFSET 0.000000 0.000000 0.000000
		CHANNELS 3 Xrotation Yrotation Zrotation
		JOINT LeftUpLeg
		{
			OFFSET 6.797100 -2.508499 -1.318700
			CHANNELS 3 Xrotation Yrotation Zrotation
			JOINT LeftLeg
			{
				OFFSET 0.069008 -29.241863 0.690200
				CHANNELS 3 Xrotation Yrotation Zrotation
				JOINT LeftFoot
				{
					OFFSET -0.069008 -29.568123 -0.266800
					CHANNELS 3 Xrotation Yrotation Zrotation
					JOINT LeftToeBase
					{
						OFFSET 3.145500 -8.631000 16.059900
						CHANNELS 3 Xrotation Yrotation Zrotation
						End Site
						{
							OFFSET 0.000000 18.501587 0.000000
						}
					}
				}
			}
			JOINT Left_ShortSleeve
			{
				OFFSET 0.265923 -10.480953 1.153800
				CHANNELS 3 Xrotation Yrotation Zrotation
				End Site
				{
					OFFSET 1.725763 19.823879 0.000000
				}
			}
		}
		JOINT RightUpLeg
		{
			OFFSET -6.797100 -2.508499 -1.318700
			CHANNELS 3 Xrotation Yrotation Zrotation
			JOINT RightLeg
			{
				OFFSET -0.082453 -29.241932 0.688000
				CHANNELS 3 Xrotation Yrotation Zrotation
				JOINT RightFoot
				{
					OFFSET 0.082453 -29.568058 -0.264600
					CHANNELS 3 Xrotation Yrotation Zrotation
					JOINT RightToeBase
					{
						OFFSET -3.115300 -8.682800 16.113400
						CHANNELS 3 Xrotation Yrotation Zrotation
						End Site
						{
							OFFSET 0.000000 18.567114 0.000000
						}
					}
				}
			}
			JOINT Right_ShortSleeve
			{
				OFFSET -0.265923 -10.480953 1.153800
				CHANNELS 3 Xrotation Yrotation Zrotation
				End Site
				{
					OFFSET -1.725766 19.823910 0.000000
				}
			}
		}
	}
	JOINT Spine
	{
		OFFSET 0.000000 13.368103 0.470500
		CHANNELS 3 Xrotation Yrotation Zrotation
		JOINT Spine1
		{
			OFFSET 0.147000 13.837402 0.538800
			CHANNELS 3 Xrotation Yrotation Zrotation
			JOINT Spine2
			{
				OFFSET 0.168000 16.242897 -1.435500
				CHANNELS 3 Xrotation Yrotation Zrotation
				JOINT Neck
				{
					OFFSET 0.217200 18.631500 -1.679100
					CHANNELS 3 Xrotation Yrotation Zrotation
					JOINT Head
					{
						OFFSET 0.000000 6.599396 1.385900
						CHANNELS 3 Xrotation Yrotation Zrotation
						JOINT Hat
						{
							OFFSET -0.532200 27.220596 -10.096100
							CHANNELS 3 Xrotation Yrotation Zrotation
							End Site
							{
								OFFSET 0.000000 22.029861 0.000000
							}
						}
						JOINT HairD
						{
							OFFSET -10.777400 17.437393 -1.325900
							CHANNELS 3 Xrotation Yrotation Zrotation
							JOINT HairD1
							{
								OFFSET -3.290299 -11.051193 1.062200
								CHANNELS 3 Xrotation Yrotation Zrotation
								End Site
								{
									OFFSET 0.000000 11.579437 0.000000
								}
							}
						}
						JOINT HairB
						{
							OFFSET -10.777400 17.437393 1.467900
							CHANNELS 3 Xrotation Yrotation Zrotation
							JOINT HairB1
							{
								OFFSET -1.561200 -12.956299 3.590200
								CHANNELS 3 Xrotation Yrotation Zrotation
								End Site
								{
									OFFSET 0.000000 13.534866 0.000000
								}
							}
						}
						JOINT HairA
						{
							OFFSET 9.713100 17.437393 1.467900
							CHANNELS 3 Xrotation Yrotation Zrotation
							JOINT HairA1
							{
								OFFSET 1.561200 -12.956299 3.590200
								CHANNELS 3 Xrotation Yrotation Zrotation
								End Site
								{
									OFFSET 0.000000 13.534866 0.000000
								}
							}
						}
						JOINT HairC
						{
							OFFSET 9.713100 17.437393 -1.325900
							CHANNELS 3 Xrotation Yrotation Zrotation
							JOINT HairC1
							{
								OFFSET 3.290300 -11.051193 1.062200
								CHANNELS 3 Xrotation Yrotation Zrotation
								End Site
								{
									OFFSET 0.000000 11.579437 0.000000
								}
							}
						}
					}
				}
				JOINT LeftShoulder
				{
					OFFSET 5.101800 15.108002 -2.763700
					CHANNELS 3 Xrotation Yrotation Zrotation
					JOINT LeftArm
					{
						OFFSET 9.825497 2.506317 -1.597400
						CHANNELS 3 Xrotation Yrotation Zrotation
						JOINT LeftForeArm
						{
							OFFSET 21.966244 0.000000 0.000000
							CHANNELS 3 Xrotation Yrotation Zrotation
							JOINT LeftHand
							{
								OFFSET 33.879036 0.000000 0.000000
								CHANNELS 3 Xrotation Yrotation Zrotation
								JOINT LeftHandThumb1
								{
									OFFSET 6.715286 -2.359680 3.363841
									CHANNELS 3 Xrotation Yrotation Zrotation
									JOINT LeftHandThumb2
									{
										OFFSET 2.507072 -1.447464 1.447461
										CHANNELS 3 Xrotation Yrotation Zrotation
										JOINT LeftHandThumb3
										{
											OFFSET 2.898338 -1.673355 1.673357
											CHANNELS 3 Xrotation Yrotation Zrotation
											End Site
											{
												OFFSET -0.295959 3.727692 -0.131651
											}
										}
									}
								}
								JOINT LeftHandIndex1
								{
									OFFSET 14.190811 -0.254547 3.840278
									CHANNELS 3 Xrotation Yrotation Zrotation
									JOINT LeftHandIndex2
									{
										OFFSET 3.551727 0.000000 -0.000000
										CHANNELS 3 Xrotation Yrotation Zrotation
										JOINT LeftHandIndex3
										{
											OFFSET 2.894196 0.000000 0.000000
											CHANNELS 3 Xrotation Yrotation Zrotation
											End Site
											{
												OFFSET -1.000603 2.690872 0.366626
											}
										}
									}
								}
								JOINT LeftHandMiddle1
								{
									OFFSET 13.776489 0.000000 0.000000
									CHANNELS 3 Xrotation Yrotation Zrotation
									JOINT LeftHandMiddle2
									{
										OFFSET 3.438232 0.000000 0.000000
										CHANNELS 3 Xrotation Yrotation Zrotation
										JOINT LeftHandMiddle3
										{
											OFFSET 3.691551 0.000000 0.000000
											CHANNELS 3 Xrotation Yrotation Zrotation
											End Site
											{
												OFFSET -1.082298 3.499527 0.457670
											}
										}
									}
								}
								JOINT LeftHandRing1
								{
									OFFSET 13.966164 -0.268127 -3.067488
									CHANNELS 3 Xrotation Yrotation Zrotation
									JOINT LeftHandRing2
									{
										OFFSET 3.162567 0.000000 0.000000
										CHANNELS 3 Xrotation Yrotation Zrotation
										JOINT LeftHandRing3
										{
											OFFSET 3.324348 0.000000 0.000000
											CHANNELS 3 Xrotation Yrotation Zrotation
											End Site
											{
												OFFSET -0.861900 3.184998 0.405154
											}
										}
									}
								}
								JOINT LeftHandPinky1
								{
									OFFSET 13.131393 -0.168503 -5.746925
									CHANNELS 3 Xrotation Yrotation Zrotation
									JOINT LeftHandPinky2
									{
										OFFSET 2.849182 0.000000 0.000000
										CHANNELS 3 Xrotation Yrotation Zrotation
										JOINT LeftHandPinky3
										{
											OFFSET 2.805038 0.000000 0.000000
											CHANNELS 3 Xrotation Yrotation Zrotation
											End Site
											{
												OFFSET -0.882500 2.642609 0.325652
											}
										}
									}
								}
							}
							JOINT Left_Sleeve
							{
								OFFSET 6.592125 -0.646545 0.805568
								CHANNELS 3 Xrotation Yrotation Zrotation
								End Site
								{
									OFFSET -0.000179 20.275787 -0.000000
								}
							}
						}
					}
				}
				JOINT RightShoulder
				{
					OFFSET -5.731700 15.108002 -2.763700
					CHANNELS 3 Xrotation Yrotation Zrotation
					JOINT RightArm
					{
						OFFSET -9.825497 2.506317 -1.597400
						CHANNELS 3 Xrotation Yrotation Zrotation
						JOINT RightForeArm
						{
							OFFSET -21.966242 0.000000 0.000000
							CHANNELS 3 Xrotation Yrotation Zrotation
							JOINT RightHand
							{
								OFFSET -33.879032 0.000000 0.000000
								CHANNELS 3 Xrotation Yrotation Zrotation
								JOINT RightHandThumb1
								{
									OFFSET -6.715286 -2.359680 3.363841
									CHANNELS 3 Xrotation Yrotation Zrotation
									JOINT RightHandThumb2
									{
										OFFSET -2.507072 -1.447464 1.447461
										CHANNELS 3 Xrotation Yrotation Zrotation
										JOINT RightHandThumb3
										{
											OFFSET -2.898338 -1.673355 1.673357
											CHANNELS 3 Xrotation Yrotation Zrotation
											End Site
											{
												OFFSET 0.295959 3.727692 -0.131651
											}
										}
									}
								}
								JOINT RightHandIndex1
								{
									OFFSET -14.190811 -0.254547 3.840278
									CHANNELS 3 Xrotation Yrotation Zrotation
									JOINT RightHandIndex2
									{
										OFFSET -3.551727 0.000000 -0.000000
										CHANNELS 3 Xrotation Yrotation Zrotation
										JOINT RightHandIndex3
										{
											OFFSET -2.894196 0.000000 0.000000
											CHANNELS 3 Xrotation Yrotation Zrotation
											End Site
											{
												OFFSET 1.000603 2.690872 0.366626
											}
										}
									}
								}
								JOINT RightHandMiddle1
								{
									OFFSET -13.776489 0.000000 0.000000
									CHANNELS 3 Xrotation Yrotation Zrotation
									JOINT RightHandMiddle2
									{
										OFFSET -3.438232 0.000000 0.000000
										CHANNELS 3 Xrotation Yrotation Zrotation
										JOINT RightHandMiddle3
										{
											OFFSET -3.691551 0.000000 0.000000
											CHANNELS 3 Xrotation Yrotation Zrotation
											End Site
											{
												OFFSET 1.082298 3.499527 0.457670
											}
										}
									}
								}
								JOINT RightHandRing1
								{
									OFFSET -13.966164 -0.268127 -3.067488
									CHANNELS 3 Xrotation Yrotation Zrotation
									JOINT RightHandRing2
									{
										OFFSET -3.162567 0.000000 0.000000
										CHANNELS 3 Xrotation Yrotation Zrotation
										JOINT RightHandRing3
										{
											OFFSET -3.324348 0.000000 0.000000
											CHANNELS 3 Xrotation Yrotation Zrotation
											End Site
											{
												OFFSET 0.861900 3.184998 0.405154
											}
										}
									}
								}
								JOINT RightHandPinky1
								{
									OFFSET -13.131393 -0.168503 -5.746925
									CHANNELS 3 Xrotation Yrotation Zrotation
									JOINT RightHandPinky2
									{
										OFFSET -2.849182 0.000000 0.000000
										CHANNELS 3 Xrotation Yrotation Zrotation
										JOINT RightHandPinky3
										{
											OFFSET -2.805038 0.000000 0.000000
											CHANNELS 3 Xrotation Yrotation Zrotation
											End Site
											{
												OFFSET 0.882500 2.642609 0.325652
											}
										}
									}
								}
							}
							JOINT Right_Sleeve
							{
								OFFSET -6.592125 -0.646545 0.805568
								CHANNELS 3 Xrotation Yrotation Zrotation
								End Site
								{
									OFFSET 0.000179 20.275787 -0.000000
								}
							}
						}
					}
				}
				JOINT Bind_Right_JacketString
				{
					OFFSET -3.534800 11.969597 7.200700
					CHANNELS 3 Xrotation Yrotation Zrotation
					JOINT Bind_Right_JacketString1
					{
						OFFSET -0.319900 -6.102600 2.794100
						CHANNELS 3 Xrotation Yrotation Zrotation
						End Site
						{
							OFFSET 0.000000 6.719452 0.000000
						}
					}
				}
				JOINT Bind_Left_JacketString
				{
					OFFSET 2.904800 11.969597 7.200700
					CHANNELS 3 Xrotation Yrotation Zrotation
					JOINT Bind_Left_JacketString1
					{
						OFFSET 0.364800 -5.904503 3.186800
						CHANNELS 3 Xrotation Yrotation Zrotation
						End Site
						{
							OFFSET 0.000000 6.719513 0.000000
						}
					}
				}
				JOINT HairE
				{
					OFFSET 5.915200 17.612701 -11.592200
					CHANNELS 3 Xrotation Yrotation Zrotation
					JOINT HairE1
					{
						OFFSET 0.289200 -7.171898 -1.284500
						CHANNELS 3 Xrotation Yrotation Zrotation
						End Site
						{
							OFFSET 0.000000 7.291756 0.000000
						}
					}
				}
				JOINT HairF
				{
					OFFSET -0.864800 17.612701 -11.592200
					CHANNELS 3 Xrotation Yrotation Zrotation
					JOINT HairF1
					{
						OFFSET 0.000000 -14.087097 -2.127501
						CHANNELS 3 Xrotation Yrotation Zrotation
						End Site
						{
							OFFSET 0.000000 14.246841 0.000000
						}
					}
				}
				JOINT HairG
				{
					OFFSET -8.087700 17.612701 -11.592200
					CHANNELS 3 Xrotation Yrotation Zrotation
					JOINT HairG1
					{
						OFFSET -0.293600 -6.081398 -0.910100
						CHANNELS 3 Xrotation Yrotation Zrotation
						End Site
						{
							OFFSET 0.000000 6.156120 0.000000
						}
					}
				}
			}
		}
	}
	JOINT Pouch
	{
		OFFSET 0.000000 4.394501 10.847300
		CHANNELS 3 Xrotation Yrotation Zrotation
		End Site
		{
			OFFSET 0.000000 21.880577 0.000000
		}
	}
	JOINT Bag
	{
		OFFSET -13.229000 4.813004 -0.593300
		CHANNELS 3 Xrotation Yrotation Zrotation
		End Site
		{
			OFFSET 0.000000 21.880577 0.000000
		}
	}
	JOINT OccupyGuyFacialAnim_Joint
	{
		OFFSET 1.000000 -70.206398 -1.655000
		CHANNELS 3 Xrotation Yrotation Zrotation
		End Site
		{
			OFFSET 0.000000 21.880577 0.000000
		}
	}
}
MOTION
Frames: 4
Frame Time: 0.033333
-0.863799 63.626236 0.767575 3.013714 -58.244582 6.565698 0.000000 -0.000001 -0.000000 -32.625570 11.151343 23.547190 43.774669 -8.034909 -9.925657 -13.046226 -2.694503 -7.240059 0.000000 0.000002 -0.000000 0.000002 0.000000 0.000000 -30.694518 -9.745614 -24.744404 48.822612 2.523445 -7.653058 -22.399551 2.490807 19.772436 -0.000000 0.000000 0.000000 -0.000002 0.000001 -0.000000 11.191503 0.099372 -2.783135 8.434585 0.027696 -5.592321 8.457040 0.027883 -5.591872 -21.556652 25.063306 12.062523 -0.293386 25.465556 -3.208404 -0.000000 -0.000000 0.000000 -0.000000 -0.000000 0.000000 -0.000000 -0.000000 0.000000 -0.000000 -0.000000 0.000000 -0.000000 -0.000000 0.000000 -0.000000 -0.000000 0.000000 -0.000000 -0.000000 0.000000 -0.000000 -0.000000 0.000000 -0.000000 -0.000000 0.000000 -6.221633 -11.503796 -4.023743 -23.062072 9.568704 -36.639758 0.046117 -43.169528 -0.011125 22.743733 -5.685624 15.979173 -1.064218 -7.954970 8.490098 2.373414 19.986093 -2.038345 -0.000000 -0.000000 -0.000001 13.340867 -1.006670 10.682284 -0.167588 0.303396 -31.105662 -0.000001 0.000001 -0.000003 8.495434 -0.329557 -0.915292 0.231524 0.661193 -29.901865 -0.000000 -0.000000 -0.000001 6.111740 3.150923 -16.210923 0.047075 0.322438 -30.125468 -0.000002 0.000000 -0.000001 -5.636034 7.709834 -13.878630 0.224362 0.276617 -46.588365 -0.000001 0.000000 0.000001 -0.000002 0.000003 -0.000004 -5.488219 10.658273 2.466470 -41.473619 -26.755905 30.079170 24.954827 111.863336 -23.307800 -8.702499 12.422942 -9.802004 0.265016 10.061103 -10.888480 1.383820 -17.412835 3.016257 -0.000001 -0.000001 0.000000 19.443611 11.174444 -13.340205 -0.118653 -0.322696 18.035603 0.000001 -0.000000 -0.000002 4.320488 2.436968 -4.811718 0.349130 -0.461292 26.890316 0.000000 -0.000003 0.000002 -7.005636 -10.695127 5.719853 0.111894 -0.089224 26.155870 0.000002 -0.000002 0.000001 -19.433553 -20.238231 5.987865 0.223811 -0.085775 36.844591 -0.000000 0.000003 0.000004 -0.000001 -0.000001 -0.000002 -0.000000 0.000000 -0.000001 0.000002 0.000000 -0.000000 -0.000000 0.000000 -0.000001 -0.000000 0.000000 -0.000001 -0.000000 0.000000 -0.000001 0.000002 0.000000 -0.000000 -0.000000 0.000000 -0.000001 -0.000000 0.000000 -0.000001 -0.000000 0.000000 -0.000001 0.000002 0.000000 -0.000000 0.000000 -0.000001 -0.000000 0.000000 -0.000001 -0.000000 0.000000 -0.000001 -0.000000 
-1.217890 63.619675 0.498384 3.101292 -55.274375 5.013090 0.000000 0.000003 0.000000 -33.883612 9.023995 24.239689 43.812214 -9.067556 -9.341102 -12.588578 -3.286554 -7.493541 -0.000000 -0.000002 -0.000000 -0.000001 0.000003 0.000000 -28.680401 -10.306413 -22.523321 49.400829 7.440200 -7.374606 -23.075509 -5.886759 17.312247 0.000000 0.000000 -0.000000 0.000001 -0.000002 -0.000001 10.691383 -0.095104 -1.985665 7.328010 -0.294440 -4.239651 7.384362 -0.087807 -4.205744 -21.482367 24.164262 11.624673 1.879967 24.791005 -2.645079 0.000000 0.000000 -0.000001 0.000000 0.000000 -0.000001 0.000000 0.000000 -0.000000 0.000000 0.000000 -0.000001 0.000000 0.000001 -0.000001 0.000000 0.000000 -0.000001 0.000000 0.000001 -0.000001 0.000000 0.000000 -0.000001 0.000000 0.000000 -0.000001 -6.240129 -11.690146 -3.961459 -20.397294 8.896408 -34.166430 0.608172 -47.942283 0.821468 20.665455 1.035919 16.559707 -1.223366 -7.911356 8.702937 2.285502 20.107076 -1.693625 0.000001 -0.000000 0.000001 13.115351 -1.103868 8.891507 -0.167696 0.303012 -31.002816 0.000001 0.000000 -0.000002 8.487136 -0.303827 -2.498856 0.233173 0.662545 -30.628033 0.000002 0.000000 0.000002 6.307010 3.067436 -17.811723 0.051865 0.329805 -31.519592 -0.000002 0.000000 0.000001 -4.682190 8.127998 -16.453782 0.226417 0.277353 -47.238722 0.000001 -0.000000 0.000001 0.000001 0.000001 -0.000001 -5.454433 10.292962 2.744860 -39.556364 -23.667802 28.207373 19.800700 113.388182 -18.227536 -3.777494 10.561060 -15.573359 0.063867 10.084795 -11.161181 1.645546 -18.070515 2.742351 -0.000003 0.000004 -0.000001 18.696263 10.921815 -11.640054 -0.117646 -0.324720 18.657657 0.000000 0.000002 0.000001 4.440522 2.227614 -3.559474 0.348288 -0.461177 27.668963 -0.000000 -0.000001 -0.000001 -6.175598 -10.487212 6.915229 0.111086 -0.093860 27.260101 0.000001 0.000002 0.000004 -17.886242 -20.075727 7.596536 0.223696 -0.086512 37.559337 0.000003 -0.000000 0.000000 0.000002 0.000003 -0.000000 -0.000003 0.000000 0.000000 -0.000001 0.000002 -0.000002 -0.000003 0.000000 -0.000000 -0.000003 0.000000 -0.000000 -0.000003 0.000000 0.000000 -0.000001 0.000002 -0.000001 -0.000003 0.000000 -0.000000 -0.000003 0.000000 -0.000000 -0.000003 0.000000 0.000000 -0.000001 0.000002 -0.000001 0.000000 0.000003 0.000000 0.000000 0.000003 0.000000 0.000000 0.000003 0.000000 
-1.894315 63.597946 0.460497 2.358412 -49.460204 2.699019 -0.000000 -0.000003 -0.000000 -34.903073 5.276684 23.233858 43.860733 -12.194411 -7.834929 -12.222790 -2.366170 -7.695364 0.000000 -0.000001 -0.000000 0.000003 0.000002 0.000002 -24.085276 -10.294786 -19.098257 48.629977 3.429040 -7.517637 -24.165701 -10.422624 18.626460 0.000000 0.000000 -0.000000 -0.000000 -0.000002 -0.000001 10.204504 -0.612652 -0.900616 6.098518 -1.083868 -2.662415 6.229144 -0.758580 -2.480034 -21.103517 21.807467 10.530731 3.710013 24.362708 -1.422277 0.000000 0.000000 0.000000 0.000000 0.000000 0.000000 0.000000 0.000000 0.000001 0.000000 0.000000 -0.000000 -0.000000 -0.000000 -0.000000 0.000000 0.000000 -0.000000 -0.000000 -0.000000 -0.000000 0.000000 0.000000 0.000000 0.000000 0.000000 0.000000 -6.289085 -12.195468 -3.786348 -17.893043 7.286874 -30.854072 3.210812 -59.474200 4.164718 18.680603 12.780034 13.304176 -1.671592 -7.791578 9.306311 2.507905 20.601225 -1.495671 -0.000000 -0.000000 0.000000 12.519924 -1.285011 4.373941 -0.167824 0.302505 -30.929299 -0.000001 0.000001 0.000005 8.470908 -0.236266 -6.545964 0.237907 0.666181 -32.600985 0.000000 0.000003 0.000003 6.779166 2.807188 -21.850866 0.065116 0.348300 -35.142501 -0.000000 -0.000002 -0.000003 -2.190794 8.836168 -22.959951 0.231866 0.279108 -48.921886 0.000001 -0.000002 -0.000003 -0.000000 -0.000001 0.000002 -5.367023 9.592902 3.503721 -37.473358 -16.793354 26.452616 9.030248 117.419886 -7.962991 5.127765 1.030462 -23.239794 -0.501333 10.150430 -11.928488 2.330896 -19.816124 2.028027 0.000002 0.000002 -0.000002 16.836852 10.117300 -7.190796 -0.114846 -0.330091 20.329706 0.000001 0.000004 -0.000004 4.792578 1.710176 -0.269833 0.345794 -0.460989 29.727073 -0.000000 0.000000 -0.000003 -4.049261 -9.806022 9.999511 0.109662 -0.106010 30.159817 -0.000004 -0.000002 0.000001 -13.890177 -19.360561 11.769680 0.223380 -0.088731 39.415280 0.000005 -0.000000 0.000002 -0.000002 -0.000000 0.000004 0.000002 0.000000 -0.000000 0.000003 0.000004 -0.000002 0.000002 0.000000 -0.000000 0.000002 0.000000 -0.000000 0.000002 0.000000 -0.000000 0.000003 0.000004 -0.000002 0.000002 0.000000 -0.000000 0.000002 0.000000 -0.000000 0.000002 0.000000 -0.000000 0.000003 0.000004 -0.000002 -0.000000 -0.000003 -0.000000 -0.000000 -0.000003 -0.000000 -0.000000 -0.000003 -0.000000 
-2.858667 63.568130 0.691608 0.314809 -42.541119 0.122536 0.000000 -0.000002 -0.000000 -34.526545 1.236930 20.747596 44.318331 -14.749370 -5.544404 -12.322185 -1.946187 -8.441499 -0.000000 0.000003 0.000000 -0.000001 -0.000001 -0.000000 -17.607396 -9.828262 -15.457401 47.528274 -1.367895 -7.698130 -25.166797 -15.798173 20.322878 0.000000 0.000001 -0.000000 0.000001 -0.000003 -0.000001 9.870662 -1.161403 0.112218 5.039552 -2.093037 -1.400030 5.245635 -1.567004 -1.074852 -20.616482 18.502530 9.113538 5.487676 23.804878 0.033083 -0.000000 -0.000000 0.000002 -0.000000 -0.000000 0.000002 -0.000000 -0.000000 0.000002 -0.000000 -0.000000 0.000001 -0.000000 -0.000001 -0.000000 -0.000000 -0.000000 0.000001 -0.000000 -0.000001 -0.000000 -0.000000 -0.000000 0.000002 -0.000000 -0.000000 0.000002 -6.357095 -12.940082 -3.516327 -15.724152 4.677922 -26.993136 12.067052 -73.549041 14.318993 18.300099 26.289716 7.902648 -2.364855 -7.616031 10.248802 2.849808 21.365373 -1.193734 0.000001 -0.000000 -0.000000 11.692527 -1.374875 -1.586282 -0.167434 0.304022 -31.238198 0.000000 0.000003 -0.000001 8.461090 -0.142541 -12.001455 0.245084 0.671405 -35.512332 -0.000000 0.000001 0.000004 7.344724 2.357848 -27.182249 0.085328 0.372416 -40.154805 0.000000 0.000000 0.000001 1.159945 8.990303 -31.516412 0.239295 0.281170 -51.235206 -0.000000 -0.000001 -0.000001 -0.000002 0.000004 0.000000 -5.260031 9.152804 4.627395 -34.594546 -7.097797 24.993786 -2.686016 122.968117 2.192867 14.927527 -13.100162 -25.738473 -1.371765 10.255111 -13.114423 3.287110 -22.310335 1.038610 -0.000000 -0.000001 0.000000 14.511594 8.662753 -0.995126 -0.110403 -0.337755 22.760501 -0.000000 -0.000001 0.000004 5.368959 1.068864 4.358507 0.342376 -0.460833 32.648475 0.000001 -0.000000 -0.000001 -1.216591 -8.533290 14.191006 0.108599 -0.123288 34.235712 0.000001 0.000001 0.000000 -8.527053 -17.671028 17.431807 0.223081 -0.091662 41.980163 -0.000003 0.000001 0.000001 0.000001 -0.000000 0.000001 0.000003 -0.000001 0.000001 -0.000000 -0.000001 -0.000000 0.000003 -0.000001 -0.000000 0.000003 -0.000001 -0.000000 0.000003 -0.000001 0.000001 -0.000000 -0.000001 0.000000 0.000003 -0.000001 -0.000000 0.000003 -0.000001 -0.000000 0.000003 -0.000001 0.000001 -0.000000 -0.000001 0.000000 0.000000 -0.000002 -0.000000 0.000000 -0.000002 -0.000000 0.000000 -0.000002 -0.000000 
